<svg width="35" height="35" viewBox="0 0 28 28" fill="none" xmlns="http://www.w3.org/2000/svg">
<path d="M16.7036 7.21802C15.9445 6.4908 14.9315 6.05448 13.8868 6.00476C12.8421 5.95505 11.851 6.29599 11.1308 6.95282L6.12259 11.655C6.03773 11.7377 5.9939 11.8512 6.00068 11.9706C6.00747 12.0901 6.06431 12.2058 6.15878 12.2925C6.2511 12.3812 6.37437 12.4346 6.50161 12.4409C6.62886 12.4473 6.74973 12.4062 6.83778 12.3265L11.846 7.6243C12.3902 7.12799 13.1392 6.87041 13.9285 6.9081C14.7179 6.94578 15.4833 7.27564 16.0568 7.82531C16.6418 8.36376 16.9929 9.08225 17.0328 9.8232C17.0728 10.5642 16.7985 11.2671 16.27 11.7779L11.1067 16.6257C10.7527 16.9486 10.2655 17.1162 9.752 17.0917C9.2385 17.0672 8.74059 16.8527 8.36752 16.4952C8.36144 16.4895 8.35624 16.4846 8.35016 16.4789C8.34409 16.4732 8.33888 16.4683 8.3328 16.4626C7.95201 16.1123 7.72352 15.6448 7.69746 15.1627C7.67141 14.6806 7.84991 14.2232 8.19381 13.8908L12.2252 10.1319C12.3997 9.98002 12.6356 9.90245 12.8832 9.91549C13.1308 9.92853 13.3708 10.0312 13.5525 10.2018C13.7342 10.3724 13.8435 10.5977 13.8574 10.8302C13.8713 11.0626 13.7887 11.2841 13.627 11.448L9.75063 15.0613C9.66272 15.1439 9.61614 15.2584 9.62112 15.3798C9.62611 15.5012 9.68226 15.6195 9.77721 15.7087C9.87217 15.7978 9.99815 15.8505 10.1275 15.8552C10.2568 15.8599 10.3788 15.8162 10.4667 15.7336L14.3414 12.1218C14.6799 11.7946 14.8555 11.3443 14.8299 10.8698C14.8043 10.3952 14.5796 9.935 14.2049 9.59007C13.8375 9.23829 13.3474 9.02726 12.8419 9.00323C12.3365 8.97921 11.8569 9.14415 11.5084 9.4619L7.47701 13.2209C6.96215 13.7184 6.69485 14.4032 6.73372 15.125C6.7726 15.8468 7.11447 16.5468 7.68437 17.0714C7.69045 17.0771 7.69566 17.082 7.70173 17.0877C7.70781 17.0934 7.71302 17.0983 7.71909 17.104C8.27814 17.6393 9.02413 17.9603 9.79332 17.9966C10.5625 18.0328 11.2921 17.7812 11.8218 17.2972L16.9852 12.4494C17.6846 11.7734 18.0477 10.843 17.995 9.8624C17.9422 8.88176 17.4778 7.9308 16.7036 7.21802Z" fill="#8D939C"/>
</svg>
