<svg width="135" height="150" viewBox="0 0 135 150" fill="none" xmlns="http://www.w3.org/2000/svg">
<path opacity="0.6" d="M9.05955 117.988L84.5557 145.677C89.5592 147.512 95.091 144.911 96.9114 139.867L131.704 43.4674C133.524 38.4236 130.944 32.8471 125.94 31.0121L50.4443 3.32272C45.4408 1.48763 39.909 4.08882 38.0886 9.13263L3.29614 105.533C1.47574 110.576 4.0561 116.153 9.05955 117.988Z" fill="#DBDEE4"/>
<g filter="url(#filter0_d_106_8180)">
<path d="M112.881 10.2358L36.1751 10.2682L35.4566 23.2288C35.4621 25.4802 34.5842 27.6424 33.0144 29.2438C31.4446 30.8453 29.3103 31.756 27.0771 31.7774L14.3498 32.8742L14.3412 132.306C14.3358 134.558 15.2137 136.72 16.7834 138.322C18.3532 139.923 20.4875 140.834 22.7208 140.855L113.05 140.855C115.283 140.834 117.417 139.923 118.987 138.322C120.557 136.72 121.435 134.558 121.429 132.306L121.429 18.7845C121.37 16.5244 120.448 14.3745 118.856 12.7822C117.264 11.1899 115.124 10.2778 112.881 10.2358Z" fill="url(#paint0_linear_106_8180)"/>
<path d="M14.3429 132.306L14.3412 132.306L14.3429 132.306ZM14.8412 132.308L14.8412 132.306L14.8498 33.3329L27.1012 32.2772C29.4607 32.2495 31.7138 31.285 33.3715 29.5938C35.0301 27.9017 35.9586 25.6191 35.9566 23.2422L36.6482 10.768L112.877 10.7358C114.987 10.7766 117.002 11.6356 118.502 13.1357C120.002 14.6355 120.871 16.6608 120.929 18.791L120.929 132.306L120.929 132.308C120.934 134.428 120.107 136.464 118.63 137.972C117.153 139.478 115.147 140.334 113.048 140.355L22.7224 140.355C20.6236 140.334 18.6171 139.478 17.1405 137.972C15.6631 136.464 14.8361 134.428 14.8412 132.308Z" stroke="#C4CBD8" stroke-opacity="0.58"/>
</g>
<path opacity="0.2" d="M36.218 10.251L14.4023 32.7328L33.8204 31.1686L53.4022 10.251L36.218 10.251Z" fill="url(#paint1_linear_106_8180)"/>
<path d="M36.1248 10.2671L14.2588 32.8429L28.3097 32.8429C33.211 32.8429 36.143 30.3492 36.143 25.0855L36.1248 10.2671Z" fill="#C4CBD8"/>
<g clip-path="url(#clip0_106_8180)">
<path d="M90.2917 58.7462C85.2752 51.8553 77.1579 47.381 67.9931 47.381C52.7782 47.381 40.4299 59.7405 40.4299 75V76.381H37.6736L44.5644 86.0477L50.0771 76.381H47.3207V75C47.3207 63.5657 56.582 54.2857 67.9931 54.2857" stroke="#3F526F" stroke-width="2" stroke-miterlimit="10"/>
<path d="M90.2917 58.7462C85.2752 51.8553 77.1579 47.381 67.9931 47.381C52.7782 47.381 40.4299 59.7405 40.4299 75V76.381H37.6736L44.5644 86.0477L50.0771 76.381H47.3207V75C47.3207 63.5657 56.582 54.2857 67.9931 54.2857" stroke="white" stroke-opacity="0.16" stroke-width="2" stroke-miterlimit="10"/>
<path d="M45.7083 91.2538C50.7248 98.1448 58.8421 102.619 67.9931 102.619C83.2218 102.619 95.5563 90.2595 95.5563 75V73.6191H98.3126L91.4218 63.9524L85.9092 73.6191H88.6655V75C88.6655 86.4343 79.4043 95.7143 67.9931 95.7143" stroke="#3F526F" stroke-width="2" stroke-miterlimit="10"/>
<path d="M45.7083 91.2538C50.7248 98.1448 58.8421 102.619 67.9931 102.619C83.2218 102.619 95.5563 90.2595 95.5563 75V73.6191H98.3126L91.4218 63.9524L85.9092 73.6191H88.6655V75C88.6655 86.4343 79.4043 95.7143 67.9931 95.7143" stroke="white" stroke-opacity="0.16" stroke-width="2" stroke-miterlimit="10"/>
<path d="M77.6816 74.9724C77.6816 74.1991 77.5851 73.4672 77.4197 72.7491L80.1209 71.1886L77.3646 66.4105L74.6634 67.971C73.5747 66.9353 72.2378 66.1481 70.7632 65.7062V62.5853H65.2506V65.7338C63.7759 66.1757 62.4667 66.9629 61.3917 67.9986L58.6492 66.4105L55.8929 71.1886L58.6492 72.7905C58.4838 73.4948 58.3873 74.2267 58.3873 74.9862C58.3873 75.7457 58.4838 76.5053 58.663 77.2372L55.8791 78.8391L58.6354 83.6172L61.4193 82.0015C62.4943 83.0096 63.7897 83.7829 65.2368 84.2248V87.4286H70.7494V84.2386C72.2103 83.8105 73.5333 83.0372 74.6083 82.0153L77.3508 83.6034L80.1071 78.8253L77.3784 77.251C77.5575 76.5191 77.654 75.7596 77.654 74.9724H77.6816Z" stroke="#3F526F" stroke-width="2" stroke-linejoin="round"/>
<path d="M77.6816 74.9724C77.6816 74.1991 77.5851 73.4672 77.4197 72.7491L80.1209 71.1886L77.3646 66.4105L74.6634 67.971C73.5747 66.9353 72.2378 66.1481 70.7632 65.7062V62.5853H65.2506V65.7338C63.7759 66.1757 62.4667 66.9629 61.3917 67.9986L58.6492 66.4105L55.8929 71.1886L58.6492 72.7905C58.4838 73.4948 58.3873 74.2267 58.3873 74.9862C58.3873 75.7457 58.4838 76.5053 58.663 77.2372L55.8791 78.8391L58.6354 83.6172L61.4193 82.0015C62.4943 83.0096 63.7897 83.7829 65.2368 84.2248V87.4286H70.7494V84.2386C72.2103 83.8105 73.5333 83.0372 74.6083 82.0153L77.3508 83.6034L80.1071 78.8253L77.3784 77.251C77.5575 76.5191 77.654 75.7596 77.654 74.9724H77.6816Z" stroke="white" stroke-opacity="0.16" stroke-width="2" stroke-linejoin="round"/>
<path d="M67.9931 79.1428C70.2765 79.1428 72.1276 77.288 72.1276 75C72.1276 72.7119 70.2765 70.8571 67.9931 70.8571C65.7097 70.8571 63.8586 72.7119 63.8586 75C63.8586 77.288 65.7097 79.1428 67.9931 79.1428Z" stroke="#3F526F" stroke-width="2" stroke-miterlimit="10"/>
<path d="M67.9931 79.1428C70.2765 79.1428 72.1276 77.288 72.1276 75C72.1276 72.7119 70.2765 70.8571 67.9931 70.8571C65.7097 70.8571 63.8586 72.7119 63.8586 75C63.8586 77.288 65.7097 79.1428 67.9931 79.1428Z" stroke="white" stroke-opacity="0.16" stroke-width="2" stroke-miterlimit="10"/>
</g>
<defs>
<filter id="filter0_d_106_8180" x="8.34122" y="7.23584" width="119.088" height="142.619" filterUnits="userSpaceOnUse" color-interpolation-filters="sRGB">
<feFlood flood-opacity="0" result="BackgroundImageFix"/>
<feColorMatrix in="SourceAlpha" type="matrix" values="0 0 0 0 0 0 0 0 0 0 0 0 0 0 0 0 0 0 127 0" result="hardAlpha"/>
<feOffset dy="3"/>
<feGaussianBlur stdDeviation="3"/>
<feComposite in2="hardAlpha" operator="out"/>
<feColorMatrix type="matrix" values="0 0 0 0 0 0 0 0 0 0 0 0 0 0 0 0 0 0 0.2 0"/>
<feBlend mode="normal" in2="BackgroundImageFix" result="effect1_dropShadow_106_8180"/>
<feBlend mode="normal" in="SourceGraphic" in2="effect1_dropShadow_106_8180" result="shape"/>
</filter>
<linearGradient id="paint0_linear_106_8180" x1="114.048" y1="134.938" x2="13.2902" y2="34.2436" gradientUnits="userSpaceOnUse">
<stop stop-color="white"/>
<stop offset="1" stop-color="#ECEEF2"/>
</linearGradient>
<linearGradient id="paint1_linear_106_8180" x1="41.3903" y1="23.3579" x2="35.0641" y2="14.2003" gradientUnits="userSpaceOnUse">
<stop stop-color="#F7F8FA"/>
<stop offset="1" stop-color="#989EAA"/>
</linearGradient>
<clipPath id="clip0_106_8180">
<rect width="66" height="58" fill="white" transform="translate(35 46)"/>
</clipPath>
</defs>
</svg>
