<svg width="418" height="158" viewBox="0 0 418 158" fill="none" xmlns="http://www.w3.org/2000/svg">
<g clip-path="url(#clip0_397_8740)">
<path d="M80.8347 38.02H97.0247C102.545 38.02 107.015 42.49 107.015 48.01C107.015 53.53 102.545 58 97.0247 58H44.8347C39.3147 58 34.8447 62.47 34.8447 67.99C34.8447 73.51 39.3147 77.98 44.8347 77.98H69.8247C75.3447 77.98 79.8147 82.45 79.8147 87.97C79.8147 93.49 75.3447 97.96 69.8247 97.96H44.8347C39.3147 97.96 34.8447 102.43 34.8447 107.95C34.8447 113.47 39.3147 117.94 44.8347 117.94H85.9247C91.4447 117.94 95.9147 122.41 95.9147 127.93C95.9147 133.45 91.4447 137.92 85.9247 137.92H74.2647C68.7447 137.92 64.2747 142.39 64.2747 147.91C64.2747 153.43 68.7447 157.9 74.2647 157.9H362.015C367.535 157.9 372.005 153.43 372.005 147.91C372.005 142.39 367.535 137.92 362.015 137.92H339.665C334.145 137.92 329.675 133.45 329.675 127.93C329.675 122.41 334.145 117.94 339.665 117.94H362.015C367.535 117.94 372.005 113.47 372.005 107.95C372.005 102.43 367.535 97.96 362.015 97.96H322.375C316.855 97.96 312.385 93.49 312.385 87.97C312.385 82.45 316.855 77.98 322.375 77.98H334.115C339.635 77.98 344.105 73.51 344.105 67.99C344.105 62.47 339.635 58 334.115 58H316.345C310.825 58 306.355 53.53 306.355 48.01C306.355 42.49 310.825 38.02 316.345 38.02H362.015C367.535 38.02 372.005 33.55 372.005 28.03C372.005 22.51 367.535 18.04 362.015 18.04H80.8347C75.3147 18.04 70.8447 22.51 70.8447 28.03C70.8447 33.55 75.3147 38.02 80.8347 38.02Z" fill="#E4B95E" fill-opacity="0.16"/>
<path d="M10.4149 58.01H10.0349C4.5176 58.01 0.0449219 62.4827 0.0449219 68V68.38C0.0449219 73.8973 4.5176 78.37 10.0349 78.37H10.4149C15.9322 78.37 20.4049 73.8973 20.4049 68.38V68C20.4049 62.4827 15.9322 58.01 10.4149 58.01Z" fill="#E4B95E" fill-opacity="0.16"/>
<path d="M407.965 97.8H407.585C402.067 97.8 397.595 102.273 397.595 107.79V108.17C397.595 113.687 402.067 118.16 407.585 118.16H407.965C413.482 118.16 417.955 113.687 417.955 108.17V107.79C417.955 102.273 413.482 97.8 407.965 97.8Z" fill="#E4B95E" fill-opacity="0.16"/>
<path d="M351.594 87.99H331.604V107.98H351.594V87.99Z" fill="#3F526F" fill-opacity="0.16"/>
<path d="M133.585 0H106.375V26.81H133.585V0Z" fill="#3F526F" fill-opacity="0.16"/>
<path d="M81.9454 124.73H54.7354V151.54H81.9454V124.73Z" fill="#3F526F" fill-opacity="0.16"/>
<path d="M287.595 146.52V48.77C287.595 45.11 284.635 42.15 280.975 42.15H132.025C128.365 42.15 125.405 45.11 125.405 48.77V146.52H107.475C107.475 152.25 112.115 156.89 117.845 156.89H295.145C300.875 156.89 305.515 152.25 305.515 146.52H287.585H287.595Z" fill="white"/>
<path d="M295.155 157.89H117.855C111.585 157.89 106.485 152.79 106.485 146.52V145.52H226.385C226.935 145.52 227.385 145.97 227.385 146.52C227.385 147.07 226.935 147.52 226.385 147.52H108.535C109.035 152.22 113.025 155.89 117.855 155.89H295.155C299.985 155.89 303.975 152.22 304.475 147.52H256.495C255.945 147.52 255.495 147.07 255.495 146.52C255.495 145.97 255.945 145.52 256.495 145.52H306.525V146.52C306.525 152.79 301.425 157.89 295.155 157.89Z" fill="#677089"/>
<path d="M250.525 147.52H243.485C242.935 147.52 242.485 147.07 242.485 146.52C242.485 145.97 242.935 145.52 243.485 145.52H250.525C251.075 145.52 251.525 145.97 251.525 146.52C251.525 147.07 251.075 147.52 250.525 147.52Z" fill="#677089"/>
<path d="M287.595 147.52C287.045 147.52 286.595 147.07 286.595 146.52V48.77C286.595 45.67 284.075 43.15 280.975 43.15H132.025C128.925 43.15 126.405 45.67 126.405 48.77V146.52C126.405 147.07 125.955 147.52 125.405 147.52C124.855 147.52 124.405 147.07 124.405 146.52V48.77C124.405 44.57 127.825 41.15 132.025 41.15H280.975C285.175 41.15 288.595 44.57 288.595 48.77V146.52C288.595 147.07 288.145 147.52 287.595 147.52Z" fill="#677089"/>
<path d="M274.465 139.13C273.915 139.13 273.465 138.68 273.465 138.13V59.04C273.465 56.53 271.425 54.49 268.915 54.49H144.085C141.575 54.49 139.535 56.53 139.535 59.04V138.13C139.535 138.68 139.085 139.13 138.535 139.13C137.985 139.13 137.535 138.68 137.535 138.13V59.04C137.535 55.43 140.475 52.49 144.085 52.49H268.915C272.525 52.49 275.465 55.43 275.465 59.04V138.13C275.465 138.68 275.015 139.13 274.465 139.13Z" fill="#677089"/>
<path d="M98.8224 95.8249L62.3184 113.755L74.5219 138.6L111.026 120.67L98.8224 95.8249Z" fill="white"/>
<path d="M74.5252 139.6C74.4152 139.6 74.3052 139.58 74.2052 139.55C73.9552 139.46 73.7452 139.28 73.6352 139.04L61.4352 114.2C61.1952 113.7 61.3952 113.11 61.8952 112.86L98.3952 94.93C98.6352 94.81 98.9052 94.79 99.1552 94.88C99.4052 94.97 99.6152 95.15 99.7252 95.39L111.925 120.23C112.165 120.73 111.965 121.32 111.465 121.57L74.9652 139.5C74.8252 139.57 74.6752 139.6 74.5252 139.6ZM63.6552 114.21L74.9752 137.26L109.675 120.21L98.3552 97.16L63.6452 114.21H63.6552Z" fill="#677089"/>
<path d="M72.3245 87.99L62.3145 113.75L87.1344 116.39L98.8144 95.82L72.3245 87.99Z" fill="white"/>
<path d="M97.8452 119.79C97.8452 119.79 97.7552 119.79 97.7052 119.79L62.1852 114.75C61.8852 114.71 61.6152 114.53 61.4652 114.27C61.3152 114.01 61.2852 113.69 61.3952 113.4L71.3952 87.64C71.5852 87.16 72.1152 86.9 72.6152 87.04L99.1152 94.87C99.4052 94.96 99.6452 95.17 99.7552 95.45C99.8652 95.73 99.8452 96.05 99.6952 96.32L88.2752 116.43L97.9952 117.81C98.5452 117.89 98.9252 118.39 98.8452 118.94C98.7752 119.44 98.3452 119.8 97.8552 119.8L97.8452 119.79ZM63.7052 112.93L86.1652 116.12C86.1852 116.04 86.2152 115.97 86.2552 115.89L97.3152 96.41L72.9052 89.2L63.6952 112.93H63.7052Z" fill="#677089"/>
<path d="M101.959 40.8277L78.7402 30.0452L71.403 45.8446L94.6215 56.6272L101.959 40.8277Z" fill="white"/>
<path d="M94.6153 57.64C94.4753 57.64 94.3253 57.61 94.1953 57.55L70.9753 46.77C70.7353 46.66 70.5453 46.46 70.4553 46.21C70.3653 45.96 70.3753 45.69 70.4853 45.45L77.8253 29.65C78.0553 29.15 78.6553 28.93 79.1553 29.16L102.375 39.94C102.875 40.17 103.095 40.77 102.865 41.27L95.5253 57.07C95.4153 57.31 95.2153 57.5 94.9653 57.59C94.8553 57.63 94.7353 57.65 94.6253 57.65L94.6153 57.64ZM72.7253 45.37L94.1253 55.31L100.625 41.32L79.2253 31.38L72.7253 45.37Z" fill="#677089"/>
<path d="M95.3054 24.76L78.7354 30.05L87.2553 43.25L101.955 40.84L95.3054 24.76Z" fill="white"/>
<path d="M90.3149 50.44C89.9749 50.44 89.6449 50.27 89.4549 49.95L77.8749 30.56C77.7149 30.3 77.6849 29.98 77.7949 29.69C77.9049 29.4 78.1349 29.18 78.4249 29.09L94.9949 23.8C95.4949 23.64 96.0249 23.89 96.2249 24.37L102.875 40.44C102.995 40.72 102.975 41.04 102.825 41.31C102.675 41.58 102.415 41.76 102.115 41.81L88.2849 44.08L91.1749 48.92C91.4549 49.39 91.3049 50.01 90.8249 50.29C90.6649 50.39 90.4849 50.43 90.3149 50.43V50.44ZM80.2349 30.62L87.1749 42.25L100.535 40.06L94.7249 26L80.2349 30.63V30.62Z" fill="#677089"/>
<path d="M64.0047 108.62C63.8447 108.62 63.6847 108.58 63.5447 108.51C63.3247 108.39 63.1147 108.28 62.8947 108.16C62.4147 107.89 62.2447 107.28 62.5147 106.8C62.7847 106.32 63.3947 106.15 63.8747 106.42C64.0647 106.53 64.2647 106.64 64.4647 106.74C64.9547 107 65.1447 107.6 64.8847 108.09C64.7047 108.43 64.3547 108.63 63.9947 108.63L64.0047 108.62ZM58.7147 104.57C58.4447 104.57 58.1647 104.46 57.9747 104.24C57.2647 103.45 56.6247 102.6 56.0647 101.7C55.7747 101.23 55.9147 100.61 56.3847 100.32C56.8547 100.03 57.4747 100.17 57.7647 100.64C58.2547 101.43 58.8247 102.19 59.4547 102.89C59.8247 103.3 59.7947 103.93 59.3847 104.3C59.1947 104.47 58.9547 104.56 58.7147 104.56V104.57ZM54.7247 96.6199C54.2547 96.6199 53.8447 96.2899 53.7447 95.8199C53.5347 94.7999 53.4147 93.7399 53.3747 92.6799C53.3547 92.1299 53.7847 91.6599 54.3347 91.6499C54.9047 91.6199 55.3547 92.0599 55.3647 92.6099C55.3947 93.5599 55.5047 94.5099 55.6947 95.4199C55.8047 95.9599 55.4547 96.4899 54.9147 96.5999C54.8447 96.6099 54.7847 96.6199 54.7147 96.6199H54.7247ZM55.0847 87.7099C54.9947 87.7099 54.9047 87.6999 54.8147 87.6699C54.2847 87.5199 53.9647 86.9699 54.1147 86.4399C54.3947 85.4299 54.7447 84.4399 55.1647 83.4799C55.3847 82.9699 55.9747 82.7399 56.4847 82.9599C56.9947 83.1799 57.2247 83.7699 57.0047 84.2799C56.6247 85.1499 56.3047 86.0599 56.0547 86.9699C55.9347 87.4099 55.5347 87.6999 55.0947 87.6999L55.0847 87.7099ZM109.165 82.9899C108.625 82.9899 108.075 82.9599 107.535 82.9099C106.985 82.8499 106.585 82.3599 106.645 81.8099C106.705 81.2599 107.185 80.8499 107.745 80.9199C108.665 81.0099 109.615 81.0199 110.535 80.9199C111.095 80.8699 111.575 81.2699 111.625 81.8199C111.675 82.3699 111.275 82.8599 110.725 82.9099C110.205 82.9599 109.675 82.9899 109.155 82.9899H109.165ZM116.365 81.2499C115.995 81.2499 115.635 81.0399 115.465 80.6899C115.225 80.1899 115.425 79.5899 115.925 79.3499C116.755 78.9499 117.585 78.4599 118.395 77.9099C118.855 77.5999 119.475 77.7199 119.785 78.1799C120.095 78.6399 119.975 79.2599 119.515 79.5699C118.625 80.1699 117.715 80.6999 116.805 81.1499C116.665 81.2199 116.515 81.2499 116.365 81.2499ZM101.915 81.2199C101.765 81.2199 101.615 81.1899 101.475 81.1199C100.565 80.6799 99.6547 80.1399 98.7647 79.5399C98.3047 79.2299 98.1847 78.6099 98.4947 78.1499C98.8047 77.6899 99.4247 77.5699 99.8847 77.8799C100.705 78.4299 101.535 78.9199 102.355 79.3199C102.855 79.5599 103.055 80.1599 102.815 80.6599C102.645 81.0099 102.285 81.2199 101.915 81.2199ZM59.2347 79.7999C59.0047 79.7999 58.7847 79.7199 58.5947 79.5699C58.1747 79.2199 58.1147 78.5899 58.4647 78.1599C59.1347 77.3599 59.8747 76.5999 60.6547 75.8999C61.0647 75.5299 61.6947 75.5699 62.0647 75.9799C62.4347 76.3899 62.3947 77.0199 61.9847 77.3899C61.2747 78.0199 60.6147 78.7099 60.0047 79.4399C59.8047 79.6799 59.5247 79.7999 59.2347 79.7999ZM94.3547 76.3699C94.1747 76.3699 93.9947 76.3199 93.8247 76.2199C92.9547 75.6799 92.1047 75.1699 91.2847 74.7099C90.8047 74.4399 90.6347 73.8299 90.9047 73.3499C91.1747 72.8699 91.7847 72.6999 92.2647 72.9699C93.1047 73.4399 93.9847 73.9699 94.8847 74.5299C95.3547 74.8199 95.4947 75.4399 95.2047 75.9099C95.0147 76.2099 94.6847 76.3799 94.3547 76.3799V76.3699ZM123.505 75.8399C123.265 75.8399 123.015 75.7499 122.825 75.5699C122.425 75.1899 122.395 74.5599 122.775 74.1599C123.945 72.9099 124.595 71.9699 124.605 71.9599C124.915 71.5099 125.545 71.3899 125.995 71.7099C126.445 72.0199 126.565 72.6499 126.255 73.0999C126.225 73.1399 125.525 74.1599 124.245 75.5299C124.045 75.7399 123.785 75.8499 123.515 75.8499L123.505 75.8399ZM66.2747 74.2799C65.9247 74.2799 65.5847 74.0999 65.4047 73.7699C65.1347 73.2899 65.3047 72.6799 65.7847 72.4099C66.7247 71.8799 67.6447 71.4099 68.5147 70.9999C69.0147 70.7699 69.6147 70.9799 69.8447 71.4899C70.0747 71.9899 69.8647 72.5899 69.3547 72.8199C68.5247 73.1999 67.6547 73.6599 66.7547 74.1599C66.6047 74.2499 66.4347 74.2899 66.2647 74.2899L66.2747 74.2799ZM86.3747 72.2599C86.2547 72.2599 86.1347 72.2399 86.0147 72.1899C85.0747 71.8299 84.1547 71.5299 83.2647 71.2999C82.7347 71.1599 82.4147 70.6099 82.5547 70.0799C82.6947 69.5499 83.2347 69.2299 83.7747 69.3699C84.7347 69.6199 85.7247 69.9399 86.7347 70.3299C87.2547 70.5299 87.5047 71.1099 87.3147 71.6199C87.1647 72.0199 86.7847 72.2599 86.3847 72.2599H86.3747ZM74.6147 70.9999C74.1447 70.9999 73.7247 70.6699 73.6347 70.1899C73.5247 69.6499 73.8847 69.1199 74.4247 69.0199C75.4647 68.8199 76.5247 68.6899 77.5547 68.6499C78.1347 68.6099 78.5747 69.0599 78.5947 69.6099C78.6147 70.1599 78.1847 70.6299 77.6347 70.6499C76.7047 70.6899 75.7547 70.7999 74.8147 70.9799C74.7447 70.9899 74.6847 70.9999 74.6247 70.9999H74.6147Z" fill="#677089"/>
<path d="M125.415 125.73C125.215 125.73 125.005 125.67 124.825 125.54C124.785 125.51 123.835 124.82 122.425 123.58C122.005 123.22 121.965 122.58 122.325 122.17C122.685 121.75 123.325 121.71 123.735 122.07C125.085 123.25 125.995 123.91 126.005 123.92C126.455 124.25 126.545 124.87 126.225 125.32C126.025 125.59 125.725 125.73 125.415 125.73ZM118.795 119.62C118.525 119.62 118.255 119.51 118.055 119.29C117.355 118.52 116.685 117.74 116.065 116.96C115.725 116.53 115.795 115.9 116.225 115.55C116.655 115.21 117.285 115.28 117.635 115.71C118.235 116.46 118.875 117.21 119.545 117.95C119.915 118.36 119.885 118.99 119.475 119.36C119.285 119.53 119.045 119.62 118.805 119.62H118.795ZM113.475 112.37C113.125 112.37 112.785 112.19 112.605 111.86C112.085 110.93 111.625 110 111.225 109.08C111.005 108.57 111.245 107.98 111.745 107.77C112.255 107.55 112.845 107.79 113.055 108.29C113.425 109.14 113.855 110.02 114.345 110.88C114.615 111.36 114.445 111.97 113.965 112.24C113.815 112.33 113.645 112.37 113.475 112.37ZM110.505 103.93C110.015 103.93 109.585 103.56 109.515 103.06C109.405 102.22 109.345 101.38 109.345 100.56C109.345 100.34 109.345 100.12 109.355 99.9C109.375 99.35 109.835 98.92 110.385 98.94C110.935 98.96 111.365 99.42 111.345 99.97C111.345 100.17 111.335 100.36 111.335 100.56C111.335 101.29 111.385 102.04 111.485 102.79C111.555 103.34 111.175 103.84 110.625 103.91C110.585 103.91 110.535 103.91 110.495 103.91L110.505 103.93ZM111.535 95.08C111.445 95.08 111.345 95.07 111.255 95.04C110.725 94.89 110.415 94.33 110.575 93.8C110.845 92.85 111.115 91.89 111.375 90.93C111.515 90.4 112.065 90.08 112.605 90.22C113.135 90.36 113.455 90.91 113.315 91.45C113.055 92.43 112.775 93.4 112.505 94.36C112.375 94.8 111.975 95.08 111.545 95.08H111.535ZM113.725 86.35C113.665 86.35 113.595 86.35 113.535 86.33C112.995 86.22 112.645 85.7 112.745 85.16C112.945 84.16 113.105 83.19 113.245 82.25C113.325 81.7 113.835 81.33 114.375 81.4C114.925 81.48 115.305 81.99 115.225 82.53C115.085 83.5 114.915 84.51 114.705 85.54C114.615 86.02 114.195 86.35 113.725 86.35ZM114.685 77.42C114.135 77.42 113.685 76.97 113.685 76.42C113.685 75.43 113.635 74.45 113.555 73.52C113.505 72.97 113.905 72.48 114.455 72.43C115.005 72.38 115.495 72.78 115.545 73.33C115.635 74.33 115.685 75.37 115.685 76.42C115.685 76.97 115.235 77.42 114.685 77.42ZM113.335 68.56C112.915 68.56 112.525 68.29 112.385 67.87C112.085 66.96 111.725 66.06 111.315 65.21C111.075 64.71 111.285 64.11 111.785 63.88C112.285 63.64 112.885 63.85 113.115 64.35C113.555 65.28 113.955 66.26 114.275 67.24C114.445 67.76 114.165 68.33 113.645 68.5C113.545 68.53 113.435 68.55 113.325 68.55L113.335 68.56ZM109.005 60.73C108.715 60.73 108.425 60.6 108.225 60.36C107.625 59.63 106.975 58.91 106.285 58.22C105.895 57.83 105.895 57.2 106.285 56.81C106.675 56.42 107.305 56.42 107.695 56.81C108.435 57.55 109.135 58.32 109.775 59.11C110.125 59.54 110.055 60.17 109.635 60.52C109.445 60.67 109.225 60.74 109.005 60.74V60.73ZM102.375 54.69C102.175 54.69 101.975 54.63 101.805 54.51C101.035 53.97 100.205 53.43 99.3451 52.92C98.8751 52.63 98.7251 52.02 99.0051 51.55C99.2951 51.08 99.9051 50.93 100.375 51.21C101.275 51.75 102.135 52.31 102.945 52.88C103.395 53.2 103.505 53.82 103.195 54.27C103.005 54.55 102.695 54.7 102.375 54.7V54.69Z" fill="#677089"/>
<path d="M232.495 10.0699H162.625C159.555 10.0699 157.075 12.5599 157.075 15.6199V129.41C157.075 132.48 159.565 134.96 162.625 134.96H250.375C253.445 134.96 255.925 132.47 255.925 129.41V33.2099L232.495 10.0699Z" fill="white"/>
<path d="M250.385 135.97H162.635C159.025 135.97 156.085 133.03 156.085 129.42V110.86C156.085 110.31 156.535 109.86 157.085 109.86C157.635 109.86 158.085 110.31 158.085 110.86V129.42C158.085 131.93 160.125 133.97 162.635 133.97H250.385C252.895 133.97 254.935 131.93 254.935 129.42V33.6199L232.685 11.0699H162.625C160.115 11.0699 158.075 13.1099 158.075 15.6199V104.4C158.075 104.95 157.625 105.4 157.075 105.4C156.525 105.4 156.075 104.95 156.075 104.4V15.6199C156.075 12.0099 159.015 9.06995 162.625 9.06995H233.095C233.365 9.06995 233.615 9.17995 233.805 9.36995L256.635 32.5099C256.815 32.6999 256.925 32.9499 256.925 33.2099V129.41C256.925 133.02 253.985 135.96 250.375 135.96L250.385 135.97Z" fill="#677089"/>
<path d="M255.935 34.21H245.735C245.185 34.21 244.735 33.76 244.735 33.21C244.735 32.66 245.185 32.21 245.735 32.21H255.935C256.485 32.21 256.935 32.66 256.935 33.21C256.935 33.76 256.485 34.21 255.935 34.21Z" fill="#677089"/>
<path d="M239.814 34.2099H233.104C232.554 34.2099 232.104 33.7599 232.104 33.2099V10.0699C232.104 9.51995 232.554 9.06995 233.104 9.06995C233.654 9.06995 234.104 9.51995 234.104 10.0699V32.2099H239.814C240.364 32.2099 240.814 32.6599 240.814 33.2099C240.814 33.7599 240.364 34.2099 239.814 34.2099Z" fill="#677089"/>
<path d="M242.915 104.4H172.415V109.75H242.915V104.4Z" fill="#C5CAE9"/>
<path d="M242.915 48.6899H211.305V66.2399H242.915V48.6899Z" fill="#E4B95E" fill-opacity="0.16"/>
<path d="M199.675 34.04H170.485C169.935 34.04 169.485 33.59 169.485 33.04C169.485 32.49 169.935 32.04 170.485 32.04H199.675C200.225 32.04 200.675 32.49 200.675 33.04C200.675 33.59 200.225 34.04 199.675 34.04Z" fill="#677089"/>
<path d="M245.335 46.4301H196.095C195.545 46.4301 195.095 45.9801 195.095 45.4301C195.095 44.8801 195.545 44.4301 196.095 44.4301H245.335C245.885 44.4301 246.335 44.8801 246.335 45.4301C246.335 45.9801 245.885 46.4301 245.335 46.4301Z" fill="#677089"/>
<path d="M187.795 46.4301H170.495C169.945 46.4301 169.495 45.9801 169.495 45.4301C169.495 44.8801 169.945 44.4301 170.495 44.4301H187.795C188.345 44.4301 188.795 44.8801 188.795 45.4301C188.795 45.9801 188.345 46.4301 187.795 46.4301Z" fill="#677089"/>
<path d="M245.335 58.8199H170.485C169.935 58.8199 169.485 58.3699 169.485 57.8199C169.485 57.2699 169.935 56.8199 170.485 56.8199H245.335C245.885 56.8199 246.335 57.2699 246.335 57.8199C246.335 58.3699 245.885 58.8199 245.335 58.8199Z" fill="#677089"/>
<path d="M245.335 71.2H170.485C169.935 71.2 169.485 70.75 169.485 70.2C169.485 69.65 169.935 69.2 170.485 69.2H245.335C245.885 69.2 246.335 69.65 246.335 70.2C246.335 70.75 245.885 71.2 245.335 71.2Z" fill="#677089"/>
<path d="M233.055 83.59H170.495C169.945 83.59 169.495 83.14 169.495 82.59C169.495 82.04 169.945 81.59 170.495 81.59H233.055C233.605 81.59 234.055 82.04 234.055 82.59C234.055 83.14 233.605 83.59 233.055 83.59Z" fill="#677089"/>
<path d="M241.275 87.34C238.655 87.34 236.525 85.21 236.525 82.59C236.525 79.97 238.655 77.84 241.275 77.84C243.895 77.84 246.025 79.97 246.025 82.59C246.025 85.21 243.895 87.34 241.275 87.34ZM241.275 79.85C239.765 79.85 238.525 81.08 238.525 82.6C238.525 84.12 239.755 85.35 241.275 85.35C242.795 85.35 244.025 84.12 244.025 82.6C244.025 81.08 242.795 79.85 241.275 79.85Z" fill="#677089"/>
<path d="M245.335 122.73H242.485C241.935 122.73 241.485 122.28 241.485 121.73C241.485 121.18 241.935 120.73 242.485 120.73H245.335C245.885 120.73 246.335 121.18 246.335 121.73C246.335 122.28 245.885 122.73 245.335 122.73ZM236.485 122.73H233.485C232.935 122.73 232.485 122.28 232.485 121.73C232.485 121.18 232.935 120.73 233.485 120.73H236.485C237.035 120.73 237.485 121.18 237.485 121.73C237.485 122.28 237.035 122.73 236.485 122.73ZM227.485 122.73H224.485C223.935 122.73 223.485 122.28 223.485 121.73C223.485 121.18 223.935 120.73 224.485 120.73H227.485C228.035 120.73 228.485 121.18 228.485 121.73C228.485 122.28 228.035 122.73 227.485 122.73ZM218.485 122.73H215.485C214.935 122.73 214.485 122.28 214.485 121.73C214.485 121.18 214.935 120.73 215.485 120.73H218.485C219.035 120.73 219.485 121.18 219.485 121.73C219.485 122.28 219.035 122.73 218.485 122.73ZM209.485 122.73H206.485C205.935 122.73 205.485 122.28 205.485 121.73C205.485 121.18 205.935 120.73 206.485 120.73H209.485C210.035 120.73 210.485 121.18 210.485 121.73C210.485 122.28 210.035 122.73 209.485 122.73ZM200.485 122.73H197.485C196.935 122.73 196.485 122.28 196.485 121.73C196.485 121.18 196.935 120.73 197.485 120.73H200.485C201.035 120.73 201.485 121.18 201.485 121.73C201.485 122.28 201.035 122.73 200.485 122.73ZM191.485 122.73H188.485C187.935 122.73 187.485 122.28 187.485 121.73C187.485 121.18 187.935 120.73 188.485 120.73H191.485C192.035 120.73 192.485 121.18 192.485 121.73C192.485 122.28 192.035 122.73 191.485 122.73ZM182.485 122.73H179.485C178.935 122.73 178.485 122.28 178.485 121.73C178.485 121.18 178.935 120.73 179.485 120.73H182.485C183.035 120.73 183.485 121.18 183.485 121.73C183.485 122.28 183.035 122.73 182.485 122.73ZM173.485 122.73H170.485C169.935 122.73 169.485 122.28 169.485 121.73C169.485 121.18 169.935 120.73 170.485 120.73H173.485C174.035 120.73 174.485 121.18 174.485 121.73C174.485 122.28 174.035 122.73 173.485 122.73Z" fill="#677089"/>
<path d="M240.105 117.34C239.845 117.34 239.595 117.24 239.395 117.05L231.665 109.32C231.275 108.93 231.275 108.3 231.665 107.91C232.055 107.52 232.685 107.52 233.075 107.91L240.805 115.64C241.195 116.03 241.195 116.66 240.805 117.05C240.605 117.25 240.355 117.34 240.095 117.34H240.105Z" fill="#677089"/>
<path d="M232.375 117.34C232.115 117.34 231.865 117.24 231.665 117.05C231.275 116.66 231.275 116.03 231.665 115.64L239.705 107.6C240.095 107.21 240.725 107.21 241.115 107.6C241.505 107.99 241.505 108.62 241.115 109.01L233.075 117.05C232.875 117.25 232.625 117.34 232.365 117.34H232.375Z" fill="#677089"/>
<path d="M361.247 39.9996L322.169 10.2728L301.935 36.8717L341.014 66.5984L361.247 39.9996Z" fill="white"/>
<path d="M341.025 67.5801C340.815 67.5801 340.605 67.5101 340.425 67.3801L301.345 37.6601C300.905 37.3301 300.825 36.7001 301.155 36.2601L306.895 28.7101C307.225 28.2701 307.855 28.1801 308.295 28.5201C308.735 28.8501 308.815 29.4801 308.485 29.9201L303.345 36.6801L340.835 65.1901L359.855 40.1801L322.365 11.6701L314.225 22.3701C313.895 22.8101 313.265 22.9001 312.825 22.5601C312.385 22.2301 312.305 21.6001 312.635 21.1601L321.375 9.67006C321.705 9.23006 322.335 9.14006 322.775 9.48006L361.855 39.2001C362.065 39.3601 362.205 39.6001 362.245 39.8601C362.285 40.1201 362.205 40.3901 362.045 40.6001L341.815 67.2001C341.615 67.4601 341.315 67.5901 341.015 67.5901L341.025 67.5801Z" fill="#677089"/>
<path d="M327.765 44.47C327.285 44.47 326.865 44.12 326.775 43.64L321.185 10.43C321.095 9.88997 321.465 9.36997 322.005 9.27997C322.555 9.18997 323.065 9.55997 323.155 10.1L328.585 42.38L361.145 38.99C361.695 38.93 362.185 39.33 362.245 39.88C362.305 40.43 361.905 40.92 361.355 40.98L327.865 44.46C327.865 44.46 327.795 44.46 327.765 44.46V44.47Z" fill="#677089"/>
<path d="M349.035 70.59C346.125 74.42 340.655 75.17 336.815 72.25C332.985 69.34 332.235 63.87 335.155 60.03C338.065 56.2 343.535 55.45 347.375 58.37C351.205 61.28 351.955 66.75 349.035 70.59Z" fill="white"/>
<path d="M342.085 75.03C340.035 75.03 337.965 74.39 336.215 73.05C334.145 71.48 332.815 69.2 332.465 66.62C332.115 64.05 332.785 61.49 334.355 59.43C335.925 57.36 338.205 56.03 340.775 55.68C343.355 55.33 345.905 56 347.965 57.57C348.405 57.9 348.485 58.53 348.155 58.97C347.825 59.41 347.195 59.49 346.755 59.16C345.115 57.91 343.095 57.38 341.045 57.66C339.005 57.94 337.195 58.99 335.945 60.64C334.695 62.28 334.165 64.31 334.445 66.35C334.725 68.39 335.775 70.2 337.425 71.45C340.815 74.03 345.665 73.37 348.235 69.98C348.565 69.54 349.195 69.46 349.635 69.79C350.075 70.12 350.155 70.75 349.825 71.19C347.915 73.7 345.015 75.02 342.075 75.02L342.085 75.03Z" fill="#677089"/>
<path d="M340.455 68C340.235 68 340.025 67.93 339.845 67.8C339.635 67.64 339.495 67.4 339.455 67.14L338.605 60.88C338.535 60.33 338.915 59.83 339.465 59.75C340.015 59.67 340.515 60.06 340.595 60.61L341.315 65.88L353.875 64.17C354.425 64.1 354.925 64.48 355.005 65.03C355.075 65.58 354.695 66.08 354.145 66.16L340.595 68C340.595 68 340.505 68 340.465 68H340.455Z" fill="#677089"/>
<path d="M334.136 114.182L304.408 128.114L313.893 148.351L343.62 134.42L334.136 114.182Z" fill="white"/>
<path d="M313.895 149.37C313.515 149.37 313.155 149.16 312.985 148.79L310.295 143.04C310.065 142.54 310.275 141.94 310.775 141.71C311.275 141.47 311.875 141.69 312.105 142.19L314.375 147.03L342.295 133.95L333.665 115.53L305.745 128.61L309.415 136.45C309.645 136.95 309.435 137.55 308.935 137.78C308.435 138.01 307.835 137.8 307.605 137.3L303.505 128.56C303.395 128.32 303.385 128.04 303.465 127.8C303.555 127.55 303.745 127.35 303.985 127.24L333.715 113.31C334.215 113.07 334.815 113.29 335.045 113.79L344.525 134.02C344.635 134.26 344.645 134.54 344.565 134.78C344.475 135.03 344.285 135.23 344.045 135.34L314.315 149.27C314.175 149.33 314.035 149.36 313.895 149.36V149.37Z" fill="#677089"/>
<path d="M325.815 136.12C325.715 136.12 325.605 136.1 325.505 136.07L304.105 129.08C303.585 128.91 303.295 128.34 303.465 127.82C303.635 127.3 304.195 127.01 304.725 127.18L325.235 133.88L333.215 113.83C333.415 113.32 333.995 113.06 334.515 113.27C335.025 113.47 335.275 114.06 335.075 114.57L326.755 135.49C326.605 135.88 326.225 136.12 325.825 136.12H325.815Z" fill="#677089"/>
<path d="M348.475 130.94C349.845 133.86 348.585 137.33 345.675 138.69C342.765 140.05 339.285 138.8 337.925 135.89C336.565 132.98 337.815 129.5 340.725 128.14C343.645 126.77 347.115 128.03 348.475 130.94Z" fill="white"/>
<path d="M343.215 140.24C340.645 140.24 338.185 138.78 337.025 136.31C335.425 132.9 336.905 128.83 340.315 127.23C340.815 126.99 341.415 127.21 341.645 127.71C341.875 128.21 341.665 128.81 341.165 129.04C339.995 129.59 339.115 130.56 338.675 131.77C338.235 132.98 338.295 134.29 338.845 135.46C339.395 136.63 340.365 137.51 341.575 137.95C342.785 138.39 344.095 138.33 345.265 137.78C347.675 136.65 348.715 133.77 347.595 131.36C347.365 130.86 347.575 130.26 348.075 130.03C348.575 129.8 349.165 130.01 349.405 130.51C351.005 133.92 349.525 137.99 346.115 139.59C345.185 140.03 344.195 140.23 343.225 140.23L343.215 140.24Z" fill="#677089"/>
<path d="M343.685 135.9C343.565 135.9 343.455 135.88 343.345 135.84L339.375 134.4C338.855 134.21 338.585 133.64 338.775 133.12C338.965 132.6 339.535 132.33 340.055 132.52L343.085 133.62L345.855 125.96C346.045 125.44 346.615 125.17 347.135 125.36C347.655 125.55 347.925 126.12 347.735 126.64L344.625 135.24C344.535 135.49 344.345 135.69 344.105 135.8C343.975 135.86 343.825 135.89 343.685 135.89V135.9Z" fill="#677089"/>
<path d="M287.805 108.15C287.805 108.15 287.705 108.15 287.655 108.14C287.105 108.06 286.735 107.55 286.815 107C286.965 105.97 287.125 104.98 287.285 104.02C287.375 103.47 287.885 103.11 288.435 103.2C288.975 103.29 289.345 103.81 289.255 104.35C289.095 105.3 288.945 106.28 288.795 107.29C288.725 107.79 288.295 108.14 287.805 108.14V108.15ZM289.395 99.31C289.325 99.31 289.255 99.31 289.185 99.29C288.645 99.17 288.305 98.64 288.425 98.1C288.645 97.07 288.875 96.09 289.115 95.15C289.245 94.61 289.795 94.29 290.325 94.42C290.865 94.55 291.185 95.1 291.055 95.63C290.825 96.55 290.605 97.51 290.385 98.52C290.285 98.99 289.865 99.31 289.405 99.31H289.395ZM291.765 90.65C291.655 90.65 291.545 90.63 291.435 90.59C290.915 90.41 290.635 89.84 290.815 89.32C291.165 88.32 291.535 87.36 291.915 86.46C292.135 85.95 292.715 85.71 293.225 85.93C293.735 86.15 293.975 86.73 293.755 87.24C293.395 88.09 293.035 89.01 292.705 89.97C292.565 90.38 292.175 90.64 291.765 90.64V90.65ZM295.705 82.63C295.505 82.63 295.295 82.57 295.115 82.44C294.665 82.12 294.565 81.49 294.895 81.04C295.545 80.14 296.245 79.33 296.975 78.65C297.375 78.27 298.005 78.29 298.385 78.69C298.765 79.09 298.745 79.73 298.345 80.1C297.705 80.7 297.095 81.41 296.515 82.21C296.315 82.48 296.015 82.62 295.705 82.62V82.63ZM302.835 77.52C302.395 77.52 301.985 77.22 301.865 76.77C301.725 76.24 302.045 75.69 302.585 75.55C303.515 75.31 304.505 75.15 305.695 75.04C306.255 74.99 306.735 75.4 306.785 75.95C306.835 76.5 306.425 76.99 305.875 77.04C304.785 77.14 303.905 77.28 303.085 77.5C303.005 77.52 302.915 77.53 302.835 77.53V77.52ZM311.755 76.51C311.285 76.51 310.865 76.18 310.775 75.7C310.665 75.16 311.025 74.63 311.565 74.53C312.535 74.34 313.355 74.05 314.075 73.65C314.555 73.38 315.165 73.55 315.435 74.04C315.705 74.52 315.525 75.13 315.045 75.4C314.135 75.91 313.125 76.26 311.945 76.5C311.875 76.51 311.815 76.52 311.755 76.52V76.51ZM318.465 71.11C318.325 71.11 318.185 71.08 318.045 71.02C317.545 70.79 317.325 70.19 317.555 69.69C317.925 68.9 318.225 68.01 318.455 67.04C318.585 66.5 319.125 66.17 319.665 66.3C320.205 66.43 320.535 66.97 320.405 67.51C320.145 68.6 319.795 69.62 319.375 70.53C319.205 70.9 318.845 71.11 318.465 71.11ZM320.065 62.3C319.515 62.3 319.065 61.88 319.065 61.32C319.065 60.36 319.025 59.39 318.955 58.4C318.915 57.85 319.325 57.37 319.875 57.33C320.435 57.29 320.905 57.7 320.945 58.25C321.025 59.29 321.065 60.31 321.065 61.27C321.065 61.82 320.615 62.29 320.065 62.29V62.3ZM319.145 53.38C318.675 53.38 318.255 53.05 318.165 52.57C317.825 50.84 317.525 49.73 317.515 49.72C317.365 49.19 317.675 48.64 318.215 48.49C318.745 48.34 319.295 48.65 319.445 49.19C319.455 49.24 319.775 50.38 320.125 52.2C320.235 52.74 319.875 53.27 319.335 53.37C319.275 53.38 319.205 53.39 319.145 53.39V53.38Z" fill="#677089"/>
<path d="M315.825 118.63C315.585 118.63 315.345 118.55 315.155 118.37C314.445 117.73 313.685 117.16 312.905 116.67C312.435 116.38 312.295 115.76 312.585 115.29C312.875 114.82 313.495 114.68 313.965 114.97C314.855 115.52 315.705 116.16 316.495 116.88C316.905 117.25 316.945 117.88 316.575 118.29C316.375 118.51 316.105 118.62 315.835 118.62L315.825 118.63ZM287.595 118.21C287.245 118.21 286.905 118.02 286.715 117.69C286.445 117.21 286.625 116.6 287.105 116.33C287.145 116.31 288.195 115.73 289.925 115.01C290.425 114.8 291.015 115.04 291.235 115.55C291.445 116.06 291.205 116.65 290.695 116.86C289.075 117.54 288.085 118.08 288.075 118.09C287.925 118.17 287.755 118.21 287.595 118.21ZM296.005 115.04C295.555 115.04 295.145 114.74 295.035 114.28C294.905 113.74 295.225 113.2 295.765 113.07C296.785 112.82 297.805 112.61 298.795 112.46C299.345 112.38 299.855 112.75 299.935 113.29C300.015 113.84 299.645 114.35 299.105 114.43C298.175 114.57 297.215 114.77 296.255 115.01C296.175 115.03 296.095 115.04 296.015 115.04H296.005ZM307.895 114.59C307.825 114.59 307.755 114.59 307.675 114.57C306.775 114.37 305.825 114.23 304.855 114.16C304.305 114.12 303.895 113.64 303.935 113.09C303.975 112.54 304.455 112.13 305.005 112.16C306.075 112.24 307.115 112.39 308.115 112.61C308.655 112.73 308.995 113.26 308.875 113.8C308.775 114.27 308.355 114.58 307.895 114.58V114.59Z" fill="#677089"/>
</g>
<defs>
<clipPath id="clip0_397_8740">
<rect width="417.91" height="157.95" fill="white" transform="translate(0.0449219)"/>
</clipPath>
</defs>
</svg>
